<svg viewBox="0 0 443 172"><defs><linearGradient id="comet-hot-a" x1="15.9%" x2="90.6%" y1="12.9%" y2="76.1%"><stop offset="0%" stop-color="#ff9a00"></stop><stop offset="100%" stop-color="#e92257"></stop></linearGradient><radialGradient id="comet-hot-b" cx="53.14%" cy="63.55%" r="65.8%" fx="53.14%" fy="63.55%" gradientTransform="matrix(.59021 .27562 -.16923 .96127 .33 -.12)"><stop offset="4%" stop-color="#fff"></stop><stop offset="69%" stop-color="#fff"></stop><stop offset="100%" stop-color="#f5f7f8"></stop></radialGradient></defs><path fill="url(#comet-hot-a)" d="M437.1 126.66a70.5 70.5 0 0 0-95.27-89.98c-8 3.7-60.5-3-111-11.4-26-4.2-52-8.4-73-10.7-23.8-2.6 45.9 17.3 44.1 22.1-.7 2-196.2-38.4-201.8-36.6-4.1 1.4 93 29.7 159 48.3 13.3 3.7 24.7 9 34.2 14.8 7 4.2-225.5-55.6-21 10.8 16.3 5.3 48.5 17.7 52.6 19 32.8 9.6 80.5 35.5 88 46.7a70.5 70.5 0 0 0 124.18-13.02z"></path><path fill="url(#comet-hot-b)" d="M325.7 131.87c-2.3-2.6-4.7-5.5-7.2-8.8-12.8-16.7-54.9-26.6-61.2-29.2-3-1.3-5.8-3-8.5-4.8-1.8-1.4-4.6-5.4-1.2-6.4 11-2.7 18.7 10.3 24.9-.2 1.3-3.6 9.6 2.5 12.9.9 6-3-14.8-7.4-12.2-13.3 2.2-5 46.2 13.2 45.3 8.3-.2-.6-.1-1.3.1-1.9.3-.5.7-1 1.2-1.2 1.2-.8 3-1.6 4.3-2.6l1.1-1.8c0-.7-.2-1.5-1-2.4-2.6-3.2-20.4-9.1-23-11.6-1.6-1.4-2-4.1.5-4.2 12.5-.2 30.7 3 42.3-.4l2.7-1a56 56 0 1 1-21 80.6z"></path></svg>